HIERARCHY
ROOT hip
{
  OFFSET 0 0 0
  CHANNELS 6 Xposition Yposition Zposition Zrotation Yrotation Xrotation
  JOINT abdomen
  {
    OFFSET 0 20.6881 -0.73152
    CHANNELS 3 Zrotation Xrotation Yrotation
    JOINT chest
    {
      OFFSET 0 11.7043 -0.48768
      CHANNELS 3 Zrotation Xrotation Yrotation
      JOINT neck
      {
        OFFSET 0 22.1894 -2.19456
        CHANNELS 3 Zrotation Xrotation Yrotation
        JOINT head
        {
          OFFSET -0.24384 7.07133 1.2192
          CHANNELS 3 Zrotation Xrotation Yrotation
          JOINT leftEye
          {
            OFFSET 4.14528 8.04674 8.04672
            CHANNELS 3 Zrotation Xrotation Yrotation
            End Site
            {
              OFFSET 1 0 0
            }
          }
          JOINT rightEye
          {
            OFFSET -3.6576 8.04674 8.04672
            CHANNELS 3 Zrotation Xrotation Yrotation
            End Site
            {
              OFFSET 1 0 0
            }
          }
        }
      }
      JOINT rCollar
      {
        OFFSET -2.68224 19.2634 -4.8768
        CHANNELS 3 Zrotation Xrotation Yrotation
        JOINT rShldr
        {
          OFFSET -8.77824 -1.95073 1.46304
          CHANNELS 3 Zrotation Xrotation Yrotation
          JOINT rForeArm
          {
            OFFSET -28.1742 -1.7115 0.48768
            CHANNELS 3 Zrotation Xrotation Yrotation
            JOINT rHand
            {
              OFFSET -22.5879 0.773209 7.07136
              CHANNELS 3 Zrotation Xrotation Yrotation
              JOINT rThumb1
              {
                OFFSET -1.2192 -0.487915 3.41376
                CHANNELS 3 Zrotation Xrotation Yrotation
                JOINT rThumb2
                {
                  OFFSET -3.37035 -0.52449 3.41376
                  CHANNELS 3 Zrotation Xrotation Yrotation
                  End Site
                  {
                    OFFSET -1.78271 -1.18214 1.43049
                  }
                }
              }
              JOINT rIndex1
              {
                OFFSET -7.75947 0.938293 5.60832
                CHANNELS 3 Zrotation Xrotation Yrotation
                JOINT rIndex2
                {
                  OFFSET -2.54057 -0.884171 1.56538
                  CHANNELS 3 Zrotation Xrotation Yrotation
                  End Site
                  {
                    OFFSET -1.62519 -0.234802 1.16502
                  }
                }
              }
              JOINT rMid1
              {
                OFFSET -8.24714 1.18213 3.41376
                CHANNELS 3 Zrotation Xrotation Yrotation
                JOINT rMid2
                {
                  OFFSET -3.10165 -0.590103 1.0647
                  CHANNELS 3 Zrotation Xrotation Yrotation
                  End Site
                  {
                    OFFSET -2.48547 -0.328903 0.83742
                  }
                }
              }
              JOINT rRing1
              {
                OFFSET -8.82822 0.546677 1.51678
                CHANNELS 3 Zrotation Xrotation Yrotation
                JOINT rRing2
                {
                  OFFSET -2.60934 -0.819778 -0.0198488
                  CHANNELS 3 Zrotation Xrotation Yrotation
                  End Site
                  {
                    OFFSET -2.33842 -0.294052 0.168128
                  }
                }
              }
              JOINT rPinky1
              {
                OFFSET -8.27202 -0.0477905 -0.4584
                CHANNELS 3 Zrotation Xrotation Yrotation
                JOINT rPinky2
                {
                  OFFSET -1.82734 -0.647385 -0.700984
                  CHANNELS 3 Zrotation Xrotation Yrotation
                  End Site
                  {
                    OFFSET -1.69225 -0.51767 -0.607171
                  }
                }
              }
            }
          }
        }
      }
      JOINT lCollar
      {
        OFFSET 2.68224 19.2634 -4.8768
        CHANNELS 3 Zrotation Xrotation Yrotation
        JOINT lShldr
        {
          OFFSET 8.77824 -1.95073 1.46304
          CHANNELS 3 Zrotation Xrotation Yrotation
          JOINT lForeArm
          {
            OFFSET 28.1742 -1.7115 0.48768
            CHANNELS 3 Zrotation Xrotation Yrotation
            JOINT lHand
            {
              OFFSET 22.5879 0.773209 7.07136
              CHANNELS 3 Zrotation Xrotation Yrotation
              JOINT lThumb1
              {
                OFFSET 1.2192 -0.487915 3.41376
                CHANNELS 3 Zrotation Xrotation Yrotation
                JOINT lThumb2
                {
                  OFFSET 3.37035 -0.52449 3.41376
                  CHANNELS 3 Zrotation Xrotation Yrotation
                  End Site
                  {
                    OFFSET 1.78271 -1.18214 1.43049
                  }
                }
              }
              JOINT lIndex1
              {
                OFFSET 7.75947 0.938293 5.60832
                CHANNELS 3 Zrotation Xrotation Yrotation
                JOINT lIndex2
                {
                  OFFSET 2.54057 -0.884171 1.56538
                  CHANNELS 3 Zrotation Xrotation Yrotation
                  End Site
                  {
                    OFFSET 1.62519 -0.234802 1.16502
                  }
                }
              }
              JOINT lMid1
              {
                OFFSET 8.24714 1.18213 3.41376
                CHANNELS 3 Zrotation Xrotation Yrotation
                JOINT lMid2
                {
                  OFFSET 3.10165 -0.590103 1.0647
                  CHANNELS 3 Zrotation Xrotation Yrotation
                  End Site
                  {
                    OFFSET 2.48547 -0.328903 0.83742
                  }
                }
              }
              JOINT lRing1
              {
                OFFSET 8.82822 0.546677 1.51678
                CHANNELS 3 Zrotation Xrotation Yrotation
                JOINT lRing2
                {
                  OFFSET 2.60934 -0.819778 -0.0198488
                  CHANNELS 3 Zrotation Xrotation Yrotation
                  End Site
                  {
                    OFFSET 2.33842 -0.294052 0.168128
                  }
                }
              }
              JOINT lPinky1
              {
                OFFSET 8.27202 -0.0477905 -0.4584
                CHANNELS 3 Zrotation Xrotation Yrotation
                JOINT lPinky2
                {
                  OFFSET 1.82734 -0.647385 -0.700984
                  CHANNELS 3 Zrotation Xrotation Yrotation
                  End Site
                  {
                    OFFSET 1.69225 -0.51767 -0.607171
                  }
                }
              }
            }
          }
        }
      }
    }
  }
  JOINT rButtock
  {
    OFFSET -8.77824 4.35084 1.2192
    CHANNELS 3 Zrotation Xrotation Yrotation
    JOINT rThigh
    {
      OFFSET 0 -1.70687 -2.19456
      CHANNELS 3 Zrotation Xrotation Yrotation
      JOINT rShin
      {
        OFFSET 0 -36.8199 0.73152
        CHANNELS 3 Zrotation Xrotation Yrotation
        JOINT rFoot
        {
          OFFSET 0.73152 -45.1104 -5.12064
          CHANNELS 3 Zrotation Xrotation Yrotation
          End Site
          {
            OFFSET -1.1221 -3.69964 12.103
          }
        }
      }
    }
  }
  JOINT lButtock
  {
    OFFSET 8.77824 4.35084 1.2192
    CHANNELS 3 Zrotation Xrotation Yrotation
    JOINT lThigh
    {
      OFFSET 0 -1.70687 -2.19456
      CHANNELS 3 Zrotation Xrotation Yrotation
      JOINT lShin
      {
        OFFSET 0 -36.8199 0.73152
        CHANNELS 3 Zrotation Xrotation Yrotation
        JOINT lFoot
        {
          OFFSET -0.73152 -45.1104 -5.12064
          CHANNELS 3 Zrotation Xrotation Yrotation
          End Site
          {
            OFFSET 1.1221 -3.69964 12.103
          }
        }
      }
    }
  }
}
MOTION
Frames:	4
Frame Time:	0.00833333
-137.692 82.7564 -7.88116 -12.4528 86.6126 -8.8151 -6.79625 -7.96139 -8.62258 6.05058 2.65447 -2.52791 -6.82214 17.9112 -14.0769 9.05003 -28.9067 -25.7027 -0.0 0.0 0.0 -0.0 0.0 0.0 -3.1426e-14 9.36791e-14 -1.82043e-14 80.6098 13.0174 3.93093 -6.62916 -2.33268 11.615 -0.451307 18.7493 2.73427 -3.59361e-10 -2.1477e-10 1.25348e-09 -6.01947e-10 -3.68266e-10 2.16849e-09 -3.59357e-10 -2.14769e-10 1.25347e-09 7.73091 5.47488 0.417314 -3.59363e-10 -2.14771e-10 1.25348e-09 2.90554 0.965183 0.102902 -3.59356e-10 -2.14772e-10 1.25348e-09 10.2786 0.731801 0.0259123 -3.59367e-10 -2.14771e-10 1.25349e-09 2.22167 -0.733487 -0.20892 -3.14418e-14 9.36798e-14 -1.81671e-14 -86.4133 -0.308739 -5.10264 5.42179 -1.79703 -9.4547 0.640075 22.1157 -3.27412 1.36825e-09 -2.53924e-10 -9.11603e-10 2.34564e-09 -4.41283e-10 -1.59773e-09 1.36825e-09 -2.53925e-10 -9.11592e-10 -7.73091 5.47488 -0.417314 1.36825e-09 -2.53929e-10 -9.11601e-10 -2.90554 0.965183 -0.102902 1.36825e-09 -2.53929e-10 -9.11596e-10 -10.2786 0.731801 -0.0259123 1.36826e-09 -2.53928e-10 -9.11598e-10 -2.22167 -0.733487 0.20892 -2.03217e-16 0.0 -3.88251e-19 -7.5118 -7.07111 3.49393 -0.0744081 16.5871 0.311721 -3.7224 -9.67973 -12.8036 2.03217e-16 0.0 3.88251e-19 2.01245 -13.4845 -2.57719 0.122253 30.3526 -0.571893 6.97113 -18.7506 16.7462
-137.727 82.7504 -7.92737 -12.2685 86.6642 -8.4836 -6.60996 -7.97587 -8.69053 5.95596 2.63839 -2.54757 -6.76317 17.9394 -14.0795 9.013 -29.0455 -25.7149 -0.0 0.0 0.0 -0.0 0.0 0.0 -1.80882e-14 -6.35729e-15 5.19274e-14 80.6044 13.2945 3.97111 -6.67849 -2.35643 11.704 -0.43853 18.4925 2.69407 -8.65351e-10 -2.5414e-10 1.7654e-10 -1.49122e-09 -4.4533e-10 3.14773e-10 -8.65349e-10 -2.54139e-10 1.76527e-10 7.73091 5.47488 0.417314 -8.65353e-10 -2.54139e-10 1.76535e-10 2.90554 0.965183 0.102902 -8.65348e-10 -2.54139e-10 1.76538e-10 10.2786 0.731801 0.0259123 -8.65355e-10 -2.54136e-10 1.76543e-10 2.22167 -0.733487 -0.20892 -1.80918e-14 -6.35731e-15 5.19849e-14 -86.3724 -0.251054 -5.11761 5.43121 -1.80232 -9.47156 0.634383 22.0235 -3.25899 -8.38437e-11 -3.50571e-11 -9.40703e-10 -1.62416e-10 -5.92321e-11 -1.62116e-09 -8.38469e-11 -3.50559e-11 -9.40695e-10 -7.73091 5.47488 -0.417314 -8.38445e-11 -3.50573e-11 -9.40705e-10 -2.90554 0.965183 -0.102902 -8.38468e-11 -3.50571e-11 -9.40698e-10 -10.2786 0.731801 -0.0259123 -8.38378e-11 -3.50551e-11 -9.40701e-10 -2.22167 -0.733487 0.20892 -2.03217e-16 0.0 -3.88251e-19 -7.44316 -7.13038 3.345 -0.0740082 16.5046 0.309749 -3.67195 -9.64868 -12.6367 2.03217e-16 0.0 3.88251e-19 2.17421 -13.6124 -2.40038 0.123077 30.4283 -0.573445 6.92104 -18.8217 16.5786
-137.731 82.7522 -7.94603 -12.2162 86.481 -8.4347 -6.52811 -8.01233 -8.70083 5.90401 2.62766 -2.54909 -6.71958 17.9611 -14.0766 8.99153 -29.137 -25.7131 -0.0 0.0 0.0 -0.0 0.0 0.0 -5.71691e-15 -7.80474e-14 1.00138e-13 80.599 13.5024 3.99331 -6.71704 -2.37494 11.7736 -0.428834 18.2932 2.66297 -1.20289e-09 -3.33783e-10 -5.84309e-10 -2.08493e-09 -5.89439e-10 -9.94769e-10 -1.20289e-09 -3.33784e-10 -5.84322e-10 7.73091 5.47488 0.417314 -1.20289e-09 -3.33782e-10 -5.84316e-10 2.90554 0.965183 0.102902 -1.20289e-09 -3.33781e-10 -5.84314e-10 10.2786 0.731801 0.0259123 -1.20289e-09 -3.33777e-10 -5.84309e-10 2.22167 -0.733487 -0.20892 -5.71358e-15 -7.8048e-14 1.00187e-13 -86.3432 -0.151556 -5.10808 5.44356 -1.80797 -9.49356 0.627183 21.9066 -3.23984 -1.14816e-09 1.50237e-10 -8.92779e-10 -1.99917e-09 2.63728e-10 -1.51913e-09 -1.14816e-09 1.50239e-10 -8.92772e-10 -7.73091 5.47488 -0.417314 -1.14816e-09 1.50239e-10 -8.92782e-10 -2.90554 0.965183 -0.102902 -1.14816e-09 1.5024e-10 -8.92775e-10 -10.2786 0.731801 -0.0259123 -1.14815e-09 1.50242e-10 -8.92779e-10 -2.22167 -0.733487 0.20892 -2.03217e-16 0.0 -3.88251e-19 -7.4443 -7.22908 3.28583 -0.0737686 16.4752 0.309157 -3.63507 -9.66825 -12.481 2.03217e-16 0.0 3.88251e-19 2.24303 -13.698 -2.23827 0.123656 30.4732 -0.575151 6.89888 -18.8643 16.4971
-137.742 82.7384 -7.93157 -13.7441 86.212 -9.9507 -6.59495 -8.08995 -8.61979 5.91511 2.62944 -2.52232 -6.69585 17.9879 -14.0671 8.99734 -29.1735 -25.6927 -0.0 0.0 0.0 -0.0 0.0 0.0 7.98169e-15 -1.19773e-13 1.1835e-13 80.5935 13.6425 3.98321 -6.74375 -2.38768 11.8217 -0.422044 18.1527 2.64109 -1.34123e-09 -4.91998e-10 -9.48658e-10 -2.32877e-09 -8.66406e-10 -1.62125e-09 -1.34122e-09 -4.91999e-10 -9.48669e-10 7.73091 5.47488 0.417314 -1.34123e-09 -4.91997e-10 -9.48665e-10 2.90554 0.965183 0.102902 -1.34122e-09 -4.91995e-10 -9.48663e-10 10.2786 0.731801 0.0259123 -1.34123e-09 -4.91991e-10 -9.48659e-10 2.22167 -0.733487 -0.20892 7.98296e-15 -1.19774e-13 1.18346e-13 -86.3331 -0.0178743 -5.06565 5.45572 -1.81212 -9.51513 0.619286 21.7757 -3.21849 -1.74958e-09 3.11681e-10 -7.27267e-10 -3.0339e-09 5.4419e-10 -1.2234e-09 -1.74959e-09 3.11684e-10 -7.27262e-10 -7.73091 5.47488 -0.417314 -1.74958e-09 3.11683e-10 -7.2727e-10 -2.90554 0.965183 -0.102902 -1.74959e-09 3.11684e-10 -7.27265e-10 -10.2786 0.731801 -0.0259123 -1.74958e-09 3.11687e-10 -7.2727e-10 -2.22167 -0.733487 0.20892 -2.03217e-16 0.0 -3.88251e-19 -7.53898 -7.38328 3.35469 -0.0737642 16.5226 0.310679 -3.61658 -9.76769 -12.333 2.03217e-16 0.0 3.88251e-19 2.18357 -13.7147 -2.09728 0.123823 30.4721 -0.577307 6.92118 -18.8713 16.5462
